<?xml version="1.0" encoding="UTF-8" standalone="no"?><svg xmlns="http://www.w3.org/2000/svg" xmlns:xlink="http://www.w3.org/1999/xlink" contentScriptType="application/ecmascript" contentStyleType="text/css" height="483px" preserveAspectRatio="none" style="width:297px;height:483px;" version="1.1" viewBox="0 0 297 483" width="297px" zoomAndPan="magnify"><defs><filter height="300%" id="f1xl5fc769p9o3" width="300%" x="-1" y="-1"><feGaussianBlur result="blurOut" stdDeviation="2.0"/><feColorMatrix in="blurOut" result="blurOut2" type="matrix" values="0 0 0 0 0 0 0 0 0 0 0 0 0 0 0 0 0 0 .4 0"/><feOffset dx="4.0" dy="4.0" in="blurOut2" result="blurOut3"/><feBlend in="SourceGraphic" in2="blurOut3" mode="normal"/></filter></defs><g><rect fill="#FFFFFF" filter="url(#f1xl5fc769p9o3)" height="312.4609" style="stroke: #000000; stroke-width: 2.0;" width="273" x="13" y="113.5625"/><rect fill="#FFFFFF" filter="url(#f1xl5fc769p9o3)" height="75.3984" style="stroke: #000000; stroke-width: 2.0;" width="216" x="23" y="195.9609"/><rect fill="#FFFFFF" filter="url(#f1xl5fc769p9o3)" height="46.2656" style="stroke: #000000; stroke-width: 2.0;" width="253" x="23" y="314.4922"/><line style="stroke: #A80036; stroke-width: 1.0; stroke-dasharray: 5.0,5.0;" x1="53" x2="53" y1="38.2969" y2="443.0234"/><line style="stroke: #A80036; stroke-width: 1.0; stroke-dasharray: 5.0,5.0;" x1="208.5" x2="208.5" y1="38.2969" y2="443.0234"/><rect fill="#FEFECE" filter="url(#f1xl5fc769p9o3)" height="30.2969" style="stroke: #A80036; stroke-width: 1.5;" width="36" x="33" y="3"/><text fill="#000000" font-family="sans-serif" font-size="14" lengthAdjust="spacingAndGlyphs" textLength="22" x="40" y="22.9951">SW</text><rect fill="#FEFECE" filter="url(#f1xl5fc769p9o3)" height="30.2969" style="stroke: #A80036; stroke-width: 1.5;" width="36" x="33" y="442.0234"/><text fill="#000000" font-family="sans-serif" font-size="14" lengthAdjust="spacingAndGlyphs" textLength="22" x="40" y="462.0186">SW</text><rect fill="#FEFECE" filter="url(#f1xl5fc769p9o3)" height="30.2969" style="stroke: #A80036; stroke-width: 1.5;" width="35" x="189.5" y="3"/><text fill="#000000" font-family="sans-serif" font-size="14" lengthAdjust="spacingAndGlyphs" textLength="21" x="196.5" y="22.9951">FW</text><rect fill="#FEFECE" filter="url(#f1xl5fc769p9o3)" height="30.2969" style="stroke: #A80036; stroke-width: 1.5;" width="35" x="189.5" y="442.0234"/><text fill="#000000" font-family="sans-serif" font-size="14" lengthAdjust="spacingAndGlyphs" textLength="21" x="196.5" y="462.0186">FW</text><polygon fill="#A80036" points="197,65.4297,207,69.4297,197,73.4297,201,69.4297" style="stroke: #A80036; stroke-width: 1.0;"/><line style="stroke: #A80036; stroke-width: 1.0;" x1="53" x2="203" y1="69.4297" y2="69.4297"/><text fill="#000000" font-family="sans-serif" font-size="13" lengthAdjust="spacingAndGlyphs" textLength="102" x="60" y="64.3638">fwu_get_version</text><polygon fill="#A80036" points="64,94.5625,54,98.5625,64,102.5625,60,98.5625" style="stroke: #A80036; stroke-width: 1.0;"/><line style="stroke: #A80036; stroke-width: 1.0;" x1="58" x2="208" y1="98.5625" y2="98.5625"/><text fill="#000000" font-family="sans-serif" font-size="13" lengthAdjust="spacingAndGlyphs" textLength="132" x="70" y="93.4966">fw_version_response</text><path d="M13,113.5625 L172,113.5625 L172,120.5625 L162,130.5625 L13,130.5625 L13,113.5625 " fill="#EEEEEE" style="stroke: #000000; stroke-width: 1.0;"/><rect fill="none" height="312.4609" style="stroke: #000000; stroke-width: 2.0;" width="273" x="13" y="113.5625"/><text fill="#000000" font-family="sans-serif" font-size="13" font-weight="bold" lengthAdjust="spacingAndGlyphs" textLength="114" x="28" y="126.6294">update needed</text><polygon fill="#A80036" points="197,147.8281,207,151.8281,197,155.8281,201,151.8281" style="stroke: #A80036; stroke-width: 1.0;"/><line style="stroke: #A80036; stroke-width: 1.0;" x1="53" x2="203" y1="151.8281" y2="151.8281"/><text fill="#000000" font-family="sans-serif" font-size="13" lengthAdjust="spacingAndGlyphs" textLength="58" x="60" y="146.7622">fwu_start</text><polygon fill="#A80036" points="64,176.9609,54,180.9609,64,184.9609,60,180.9609" style="stroke: #A80036; stroke-width: 1.0;"/><line style="stroke: #A80036; stroke-width: 1.0;" x1="58" x2="208" y1="180.9609" y2="180.9609"/><text fill="#000000" font-family="sans-serif" font-size="13" lengthAdjust="spacingAndGlyphs" textLength="87" x="70" y="175.895">fwu_response</text><path d="M23,195.9609 L100,195.9609 L100,202.9609 L90,212.9609 L23,212.9609 L23,195.9609 " fill="#EEEEEE" style="stroke: #000000; stroke-width: 1.0;"/><rect fill="none" height="75.3984" style="stroke: #000000; stroke-width: 2.0;" width="216" x="23" y="195.9609"/><text fill="#000000" font-family="sans-serif" font-size="13" font-weight="bold" lengthAdjust="spacingAndGlyphs" textLength="32" x="38" y="209.0278">loop</text><text fill="#000000" font-family="sans-serif" font-size="11" font-weight="bold" lengthAdjust="spacingAndGlyphs" textLength="119" x="115" y="208.1714">[image size / MTU]</text><polygon fill="#A80036" points="197,230.2266,207,234.2266,197,238.2266,201,234.2266" style="stroke: #A80036; stroke-width: 1.0;"/><line style="stroke: #A80036; stroke-width: 1.0;" x1="53" x2="203" y1="234.2266" y2="234.2266"/><text fill="#000000" font-family="sans-serif" font-size="13" lengthAdjust="spacingAndGlyphs" textLength="57" x="60" y="229.1606">fwu_data</text><polygon fill="#A80036" points="64,259.3594,54,263.3594,64,267.3594,60,263.3594" style="stroke: #A80036; stroke-width: 1.0;"/><line style="stroke: #A80036; stroke-width: 1.0;" x1="58" x2="208" y1="263.3594" y2="263.3594"/><text fill="#000000" font-family="sans-serif" font-size="13" lengthAdjust="spacingAndGlyphs" textLength="123" x="70" y="258.2935">fwu_data_response</text><polygon fill="#A80036" points="197,295.4922,207,299.4922,197,303.4922,201,299.4922" style="stroke: #A80036; stroke-width: 1.0;"/><line style="stroke: #A80036; stroke-width: 1.0;" x1="53" x2="203" y1="299.4922" y2="299.4922"/><text fill="#000000" font-family="sans-serif" font-size="13" lengthAdjust="spacingAndGlyphs" textLength="52" x="60" y="294.4263">fwu_end</text><path d="M23,314.4922 L100,314.4922 L100,321.4922 L90,331.4922 L23,331.4922 L23,314.4922 " fill="#EEEEEE" style="stroke: #000000; stroke-width: 1.0;"/><rect fill="none" height="46.2656" style="stroke: #000000; stroke-width: 2.0;" width="253" x="23" y="314.4922"/><text fill="#000000" font-family="sans-serif" font-size="13" font-weight="bold" lengthAdjust="spacingAndGlyphs" textLength="32" x="38" y="327.5591">loop</text><text fill="#000000" font-family="sans-serif" font-size="11" font-weight="bold" lengthAdjust="spacingAndGlyphs" textLength="156" x="115" y="326.7026">[pool fw status register]</text><ellipse cx="208.5" cy="352.0078" fill="none" rx="4" ry="4" style="stroke: #A80036; stroke-width: 1.5;"/><polygon fill="#A80036" points="191.5,348.7578,201.5,352.7578,191.5,356.7578,195.5,352.7578" style="stroke: #A80036; stroke-width: 1.0;"/><line style="stroke: #A80036; stroke-width: 1.0;" x1="53" x2="197.5" y1="352.7578" y2="352.7578"/><text fill="#000000" font-family="sans-serif" font-size="13" lengthAdjust="spacingAndGlyphs" textLength="110" x="60" y="347.6919">fw status register</text><polygon fill="#A80036" points="197,384.8906,207,388.8906,197,392.8906,201,388.8906" style="stroke: #A80036; stroke-width: 1.0;"/><line style="stroke: #A80036; stroke-width: 1.0;" x1="53" x2="203" y1="388.8906" y2="388.8906"/><text fill="#000000" font-family="sans-serif" font-size="13" lengthAdjust="spacingAndGlyphs" textLength="102" x="60" y="383.8247">fwu_get_version</text><polygon fill="#A80036" points="64,414.0234,54,418.0234,64,422.0234,60,418.0234" style="stroke: #A80036; stroke-width: 1.0;"/><line style="stroke: #A80036; stroke-width: 1.0;" x1="58" x2="208" y1="418.0234" y2="418.0234"/><text fill="#000000" font-family="sans-serif" font-size="13" lengthAdjust="spacingAndGlyphs" textLength="132" x="70" y="412.9575">fw_version_response</text><!--
@startuml
SW -> FW: fwu_get_version
FW -> SW: fw_version_response

group update needed

    SW -> FW: fwu_start
    FW -> SW: fwu_response
    loop image size / MTU
        SW -> FW: fwu_data
        FW -> SW: fwu_data_response
    end
   SW -> FW: fwu_end
   loop pool fw status register
        SW ->o FW:  fw status register
   end
   SW -> FW: fwu_get_version
   FW -> SW: fw_version_response
end
@enduml

PlantUML version 1.2019.01(Sat Feb 09 17:32:04 IST 2019)
(LGPL source distribution)
Java Runtime: OpenJDK Runtime Environment
JVM: OpenJDK 64-Bit Server VM
Java Version: 1.8.0_252-b09
Operating System: Linux
OS Version: 5.6.19-200.fc31.x86_64
Default Encoding: UTF-8
Language: en
--></g></svg>